<svg width="811" height="691" viewBox="0 0 811 691" fill="none" xmlns="http://www.w3.org/2000/svg">
<path fill-rule="evenodd" clip-rule="evenodd" d="M95.6278 521.448L60.4449 550.407L55.9502 565.638L119.3 528.924L129.872 547.181L65.7562 584.329L55.6112 566.792L32.6103 644.72L83.0459 591.605L98.3122 606.151L17.7406 691L2.69384e-05 680.752L58.8719 481.257L59.4211 477.994C77.4329 369.451 91.5637 284.249 252.917 201.955C276.071 190.133 301.95 190.92 325.503 199.933C349.413 209.078 371.065 226.897 384.877 248.567C409.519 257.061 431.34 268.947 449.213 285.535C466.523 301.587 480.023 321.916 488.677 347.666C508.824 348.3 528.286 345.943 546.244 340.858C574.062 333.019 598.32 318.673 616.01 298.91C633.55 279.334 644.763 254.303 646.719 224.859C647.854 207.704 645.881 189.047 640.251 169.05C632.764 142.483 620.874 122.554 605.069 109.412C589.399 96.3861 569.482 89.8155 545.796 89.8155C542.82 89.8155 540.251 89.8629 538.109 89.9647C517.26 90.9688 496.242 96.1215 480.657 106.787C466.106 116.732 456.3 131.882 456.3 153.534C456.3 155.19 456.314 156.428 456.368 157.262C456.5 160.054 456.798 161.828 457.602 163.182C458.72 165.071 461.042 167.31 465.035 170.719C476.546 180.553 478.905 193.413 475.275 204.678C473.187 211.168 469.028 217.053 463.462 221.348C457.934 225.632 450.986 228.403 443.268 228.739C428.7 229.374 411.623 221.334 397.574 197.775C391.778 188.06 388.605 177.208 387.036 165.624C379.101 107.204 404.577 56.711 457.47 26.2831C486.321 9.67831 521.368 0.75012 557.988 0.047936C594.412 -0.671209 632.486 6.69998 667.534 22.6501C727.141 49.7571 778.261 101.552 798.527 180.472C820.413 265.721 812.577 339.657 782.224 400.116C749.563 465.206 691.04 514.324 615.61 544.875C596.313 552.683 575.916 559.285 554.548 564.637C533.266 569.97 511.014 574.064 487.989 576.839L485.521 555.872C507.668 553.182 529.039 549.251 549.437 544.155C569.835 539.054 589.297 532.751 607.689 525.295C678.458 496.621 733.171 450.945 763.412 390.699C791.541 334.674 798.697 265.69 778.146 185.669C759.667 113.761 713.126 66.5756 658.863 41.8974C626.636 27.2194 591.738 20.4452 558.409 21.0999C525.246 21.7478 493.686 29.7263 467.957 44.5196C435.567 63.1631 412.362 92.8108 406.997 132.482C406.58 143.117 406.627 153.385 407.898 162.815C409.119 171.744 411.461 179.932 415.65 186.954C424.992 202.606 434.679 208.006 442.366 207.674C445.505 207.538 448.328 206.402 450.585 204.665C452.789 202.959 454.426 200.682 455.212 198.227C456.399 194.58 455.466 190.265 451.335 186.754C445.572 181.822 441.949 178.145 439.441 173.915C436.621 169.152 435.618 164.586 435.316 158.25C435.218 156.228 435.163 154.654 435.163 153.534C435.163 123.893 448.698 103.089 468.76 89.3474C487.806 76.3417 512.732 70.0864 537.123 68.8992C540.451 68.7499 543.336 68.6651 545.796 68.6651C574.465 68.6651 598.886 76.9081 618.515 93.211C637.682 109.144 651.877 132.584 660.551 163.348C666.866 185.72 669.052 206.754 667.767 226.182C665.48 260.606 652.315 289.951 631.7 312.954C611.251 335.797 583.532 352.263 551.942 361.191C529.588 367.497 505.248 370.034 480.172 368.362L472.787 367.88L470.733 360.774C463.401 335.512 451.07 316.017 434.848 300.986C418.507 285.82 398.045 275.049 374.654 267.41L368.838 262.695C357.581 243.536 338.838 227.654 318.002 219.675C299.696 212.674 279.864 211.917 262.486 220.778C123.608 291.62 100.539 365.037 84.6016 455.538L182.65 397.555L180.026 465.925C209.63 455.104 234.658 458.903 256.425 473.045C272.379 483.411 286.195 499.378 298.54 519.155C297.089 504.694 292.859 491.519 285.894 479.649C273.281 458.116 251.527 440.29 220.958 426.066L204.803 418.543L219.151 407.972C258.028 379.319 296.384 366.106 335.329 366.557C374.088 367.012 412.911 381.001 452.921 406.768C487.341 428.923 521.87 432.851 555.904 424.306C590.934 415.513 625.802 393.61 659.714 364.586L676.468 376.225C656.006 431.599 618.152 468.214 567.564 491.119C518.128 513.521 456.582 522.601 387.419 523.253L387.25 502.201C453.575 501.553 512.281 493.008 558.893 471.875C590.585 457.529 616.681 437.247 635.794 409.513C611.349 426.08 586.376 438.438 561.015 444.805C521.47 454.737 481.406 450.188 441.532 424.523C404.776 400.866 369.641 388.023 335.16 387.623C305.556 387.273 276.04 396.103 245.969 415.164C272.18 429.856 291.608 447.766 304.054 468.981C319.104 494.677 323.73 524.742 317.602 559.285L297.669 561.975C282.47 529.789 265.445 504.06 244.965 490.718C225.767 478.262 202.627 476.82 173.644 491.705L157.639 499.931L160.126 435.395L79.9884 482.777L79.5515 485.331L79.2665 486.603L71.0844 514.392L82.2257 505.179L82.2121 505.162C85.5881 502.37 89.8149 499.63 95.9905 497.923C101.59 496.366 108.674 495.783 117.995 497.055L119.564 497.37L138.346 502.923C145.226 504.962 152.778 507.187 157.438 505.01L183.819 492.625L192.737 511.716L166.36 524.091C154.446 529.674 142.904 526.262 132.393 523.154L114.402 517.835C108.643 517.133 104.579 517.418 101.603 518.236C99.0511 518.938 97.1936 520.179 95.6751 521.448H95.6278ZM252.646 140.108C258.276 136.835 264.211 133.456 270.441 130.027C276.24 126.834 282.501 123.473 289.249 119.958L279.511 101.183C273.234 104.463 266.818 107.906 260.283 111.502C254.168 114.88 248.087 118.323 242.074 121.834L252.646 140.108V140.108ZM699.507 581.805C707.926 577.575 715.783 573.247 723.101 568.834C730.619 564.281 737.998 559.383 745.268 554.135L732.954 537.032C726.49 541.679 719.572 546.242 712.19 550.709C704.855 555.153 697.487 559.234 690.087 562.948L699.507 581.805V581.805ZM405.244 620.744C457.649 626.966 505.261 627.536 548.284 623.353C594.293 618.872 635.008 608.96 670.723 594.73L662.958 575.133C629.026 588.644 590.25 598.074 546.312 602.355C504.861 606.368 458.751 605.798 407.715 599.747L405.244 620.744ZM28.5462 503.259C33.1593 430.195 52.7268 358.165 89.9977 294.812C123.557 237.749 171.573 187.643 236.024 150.091L225.452 131.818C157.689 171.289 107.169 224.041 71.8199 284.164C32.7763 350.526 12.2935 425.765 7.48041 501.923L28.5462 503.259V503.259ZM354.188 575.655L234.671 646.627C226.099 651.427 214.009 658.096 201.241 661.359C189.883 664.253 177.786 664.415 167.261 657.563L147.182 639.588C168 646.125 183.9 647.529 196.346 642.933C211.935 637.183 220.873 623.522 225.55 600.564L246.084 589.061L235.841 570.655L206.522 587.053L205.671 592.053C202.682 609.927 197.651 619.944 189.079 623.105C179.141 626.779 163.204 623.553 139.61 614.543L135.237 612.871L87.2388 637.6L96.8955 656.342L120.669 644.103L153.781 673.744L154.9 674.616C171.624 685.983 189.781 686.085 206.437 681.838C221.758 677.926 235.492 670.318 245.165 664.938L245.399 664.802L364.913 593.827L354.188 575.655" fill="#CCBB22"/>
</svg>
